<svg xmlns="http://www.w3.org/2000/svg" xmlns:xlink="http://www.w3.org/1999/xlink" version="1.1" id="Calque_1" x="0px" y="0px" width="90px" height="90px" viewBox="0 0 90 90" enable-background="new 0 0 90 90" xml:space="preserve">
<g>
	<path fill="#000000" d="M71.003,42.976c-1.165,0-2.296,0.154-3.372,0.439l-3.137-9.627l1.031-0.09   c0.381-0.032,0.676-0.35,0.676-0.731v-0.664c0,0.022,0.156,0.038,0.234,0.038c0.406,0,0.746-0.328,0.746-0.734v-4.793   c0-0.406-0.34-0.734-0.746-0.734c-0.078,0-0.234,0.016-0.234,0.037v-1.527c0-0.349-0.249-0.649-0.59-0.72l-6.672-1.38   c-0.211-0.045-0.434,0.008-0.604,0.142c-0.17,0.133-0.273,0.335-0.281,0.55L57.953,25.8l-3.84-4.807   c-0.139-0.175-0.35-0.283-0.574-0.283h-3.781c-0.406,0-0.735,0.33-0.735,0.735s0.329,0.735,0.735,0.735h3.429l4.329,5.42   c0.016,0.019,0.033,0.035,0.049,0.053l-21.971,1.955c-0.38,0.035-0.752,0.354-0.752,0.734v2.617H11.859   c-0.291,0-0.555,0.088-0.672,0.354l-0.648,1.435c-0.086-0.152-0.223-0.298-0.402-0.359c-0.384-0.131-0.801,0.064-0.933,0.449   l-0.979,2.87c-0.131,0.384,0.074,0.799,0.459,0.931c0.041,0.014,0.083,0.012,0.125,0.019l-0.562,1.281   c-0.099,0.228-0.076,0.405,0.059,0.612C8.44,40.76,8.672,40.8,8.92,40.8h2.499l2.569,3.084c-4.779,1.975-8.15,6.726-8.15,12.209   c0,7.256,5.902,13.18,13.158,13.18s13.158-5.869,13.158-13.125c0-1.994-0.448-4.077-1.246-5.547h16.83   c0.332,0,0.623-0.33,0.709-0.65l2.439-9.15h7.055c0.398,0,0.725-0.231,0.735-0.629l0.171-5.934l2.237-0.174l3.452,10.605   c-3.992,2.263-6.693,6.554-6.693,11.461c0,7.255,5.902,13.16,13.159,13.16c7.256,0,13.159-5.901,13.159-13.156   C84.162,48.878,78.259,42.976,71.003,42.976z M46.061,40.8l-2.098,8.33h-1.912l2.099-8.33H46.061z M40.532,49.13h-1.911l2.098-8.33   h1.912L40.532,49.13z M37.102,49.13H35.19l2.099-8.33h1.912L37.102,49.13z M30.098,49.13c-0.383-0.489-0.812-1.275-1.285-1.807   l1.729-6.523h1.8l-2.099,8.33H30.098z M29.019,40.8l-1.409,5.316c-1.449-1.259-3.174-2.248-5.072-2.779l0.549-2.537H29.019z    M33.859,40.8h1.881h0.031l-2.1,8.33h-1.911L33.859,40.8z M12.34,34.431h22.502v4.9H10.045L12.34,34.431z M13.354,40.8h8.228   l-0.479,2.262c-0.686-0.111-1.389-0.129-2.105-0.129c-1.217,0-2.394,0.107-3.513,0.418L13.354,40.8z M18.996,67.823   c-6.445,0-11.688-5.243-11.688-11.688s5.243-11.689,11.688-11.689c0.609,0,1.207,0.047,1.789,0.138l-0.418,1.903   c-0.449-0.063-0.904-0.108-1.371-0.108c-5.379,0-9.754,4.377-9.754,9.757c0,5.379,4.375,9.755,9.754,9.755s9.756-4.376,9.756-9.755   c0-4.403-2.934-8.131-6.947-9.34l0.416-1.894c4.881,1.404,8.463,5.906,8.463,11.233C30.684,62.58,25.441,67.823,18.996,67.823z    M20.863,56.134c0,1.029-0.838,1.865-1.867,1.865c-1.027,0-1.865-0.836-1.865-1.865c0-0.908,0.654-1.666,1.516-1.83l-0.367,1.674   c-0.088,0.396,0.162,0.788,0.56,0.875c0.054,0.012,0.106,0.018,0.158,0.018c0.338,0,0.642-0.234,0.718-0.577l0.367-1.67   C20.553,54.962,20.863,55.511,20.863,56.134z M18.979,52.8c-1.831,0.01-3.316,1.502-3.316,3.334c0,1.84,1.496,3.336,3.334,3.336   c1.84,0,3.337-1.496,3.337-3.336c0-1.332-0.788-2.481-1.92-3.016l1.075-4.885c3.354,1.06,5.793,4.2,5.793,7.901   c0,4.567-3.717,8.284-8.285,8.284s-8.285-3.717-8.285-8.284c0-4.569,3.717-8.286,8.285-8.286c0.358,0,0.709,0.03,1.055,0.074   L18.979,52.8z M47.175,49.13H45.48l2.1-8.33h1.783L47.175,49.13z M57.228,39.331H36.311v-5.808v-2.509l21.133-1.963L57.228,39.331z    M59.494,24.104l5.237,1.083v7.105l-5.569,0.484L59.494,24.104z M62.588,33.954l0.402-0.035l3.244,9.955   c-0.123,0.047-0.246,0.094-0.366,0.145L62.588,33.954z M71.003,67.823c-6.446,0-11.689-5.243-11.689-11.688   c0-4.923,3.06-9.142,7.377-10.862l0.583,1.79c-3.62,1.427-6.192,4.952-6.192,9.072c0,5.379,4.377,9.755,9.757,9.755   c5.379,0,9.754-4.376,9.754-9.755c0-5.38-4.375-9.757-9.754-9.757c-0.743,0-1.464,0.092-2.16,0.25l-0.592-1.814   c0.933-0.24,1.91-0.368,2.917-0.368c6.445,0,11.688,5.244,11.688,11.689S77.448,67.823,71.003,67.823z M70.305,56.362   c0.101,0.311,0.389,0.508,0.698,0.508c0.075,0,0.151-0.012,0.228-0.037c0.386-0.125,0.597-0.539,0.471-0.926l-0.528-1.621   c0.948,0.087,1.695,0.878,1.695,1.848c0,1.029-0.837,1.865-1.865,1.865s-1.866-0.836-1.866-1.865c0-0.557,0.25-1.052,0.639-1.394   L70.305,56.362z M67.666,56.134c0,1.84,1.497,3.336,3.337,3.336c1.839,0,3.335-1.496,3.335-3.336c0-1.839-1.496-3.336-3.335-3.336   c-0.104,0-0.208,0.007-0.31,0.016l-1.56-4.787c0.55-0.115,1.12-0.178,1.704-0.178c4.568,0,8.284,3.717,8.284,8.286   c0,4.567-3.716,8.284-8.284,8.284c-4.569,0-8.287-3.717-8.287-8.284c0-3.47,2.146-6.442,5.178-7.676l1.568,4.813   C68.322,53.856,67.666,54.919,67.666,56.134z"/>
	<path fill="#000000" d="M53.678,35.329c1.388,0,2.517-1.129,2.517-2.518c0-1.387-1.129-2.517-2.517-2.517s-2.518,1.13-2.518,2.517   C51.16,34.2,52.29,35.329,53.678,35.329z M53.678,31.765c0.577,0,1.047,0.471,1.047,1.047c0,0.578-0.47,1.047-1.047,1.047   s-1.047-0.469-1.047-1.047C52.631,32.235,53.101,31.765,53.678,31.765z"/>
</g>
</svg>