<?xml version="1.0" encoding="utf-8"?>
<!-- Generator: Adobe Illustrator 15.0.0, SVG Export Plug-In . SVG Version: 6.00 Build 0)  -->
<!DOCTYPE svg PUBLIC "-//W3C//DTD SVG 1.1//EN" "http://www.w3.org/Graphics/SVG/1.1/DTD/svg11.dtd">
<svg version="1.1" xmlns="http://www.w3.org/2000/svg" xmlns:xlink="http://www.w3.org/1999/xlink" x="0px" y="0px" width="100px"
	 height="100px" viewBox="-119.5 -0.5 100 100" enable-background="new -119.5 -0.5 100 100" xml:space="preserve">
<g id="Layer_1">
	<g id="Layer_2" display="none">
		<rect x="-143" y="-165" display="inline" opacity="0.2" fill="#1D1D1B" enable-background="new    " width="612" height="513"/>
	</g>
	<g>
		<path fill="#00D8FF" d="M183.166-58.604v-47.191c0-6.33-5.148-11.479-11.48-11.479c-6.33,0-11.479,5.149-11.479,11.479v47.191
			c-4.785,3.575-7.652,9.195-7.652,15.309c0,10.55,8.58,19.132,19.131,19.132s19.133-8.582,19.133-19.132
			C190.818-49.41,187.951-55.029,183.166-58.604z M171.686-29.266c-7.75,0-14.029-6.282-14.029-14.029
			c0-5.452,3.111-10.175,7.652-12.496v-50.004c0-3.521,2.855-6.377,6.377-6.377c3.523,0,6.379,2.856,6.379,6.377v50.004
			c4.541,2.321,7.652,7.042,7.652,12.496C185.716-35.548,179.436-29.266,171.686-29.266z"/>
		<path fill="#00D8FF" d="M175.309-53.099v-30.494h-7.248v30.494c-3.987,1.476-6.836,5.3-6.836,9.804
			c0,5.779,4.683,10.461,10.459,10.461c5.775,0,10.461-4.684,10.461-10.461C182.146-47.798,179.299-51.623,175.309-53.099z"/>
	</g>
	<g>
		<path d="M165.086,70.292c0.479-1.334,0.965-2.752,1.439-4.183c-2.4-0.727-4.66-2.037-6.558-3.933
			c-4.585-4.586-5.751-11.296-3.497-16.961c-3.044-2.975-4.814-5.906-4.814-5.906c-5.768-9.536-12.448-18.708-20.643-9.233
			c-12.13,14.024-5.85,40.771,1.707,48.33c7.557,7.559,19.713,8.435,27.273,0.876C162.572,76.708,164.268,73.585,165.086,70.292z"/>
		<path d="M190.689,47.095c-1.338,0.243-2.741,0.518-4.157,0.806c1.012,5-0.415,10.397-4.294,14.277
			c-2.489,2.489-5.607,3.971-8.84,4.446c-1.049,4.362-2.828,7.594-2.828,7.594c-5.377,9.763-9.975,20.134,2.322,22.493
			c18.215,3.493,38.238-15.322,41.004-25.646c2.768-10.32-2.554-21.289-12.875-24.055C197.505,46.062,193.95,46.158,190.689,47.095z
			"/>
		<path d="M166.977,4.438c-10.324,2.766-17.16,12.857-14.396,23.178c0.942,3.518,2.799,6.546,5.242,8.905
			c0.813,0.967,1.687,1.969,2.579,2.975c6.176-5.731,15.828-5.599,21.836,0.409c0.546,0.548,1.039,1.124,1.492,1.727
			c4.149-1.177,7.64-1.246,7.64-1.246c11.138-0.226,22.424-1.429,18.315-13.261C203.607,9.607,177.299,1.67,166.977,4.438z"/>
		<circle cx="171.104" cy="51.042" r="9.701"/>
	</g>
	<path d="M-104.805-253.348h10.021l18.117,16.77c0,0,0-15.589,0-30.255s0-28.583,0-28.583l-17.776,16.768h-10.362V-253.348z"/>
	<g>
		<path d="M-49.953,135.439h-0.724h-7.314h-2.038v63.349c-3.693-1.499-8.099-2.018-12.679-1.105
			c-10.394,2.084-17.484,10.435-15.836,18.66c1.644,8.23,11.399,13.217,21.798,11.133c8.789-1.758,15.158-8.021,15.925-14.894h0.142
			v-51.289c13.673,2.169,15.692,12.967,14.028,17.482c-0.631,1.721,0.483,3.014,2.601,0
			C-18.932,157.227-51.71,149.661-49.953,135.439z"/>
		<g>
			<path d="M-73.073,178.916h-37.715v7.847h37.715V178.916L-73.073,178.916z"/>
		</g>
		<g>
			<path d="M-73.073,164.374h-37.715v7.845h37.715V164.374L-73.073,164.374z"/>
		</g>
		<g>
			<path d="M-73.073,149.83h-37.715v7.848h37.715V149.83L-73.073,149.83z"/>
		</g>
	</g>
	<g>
		<path d="M-66.707,50.333h-31.237v5.672h31.237V50.333L-66.707,50.333z"/>
	</g>
	<g>
		<path d="M-66.707,39.75h-31.237v5.672h31.237V39.75L-66.707,39.75z"/>
	</g>
	<g>
		<path d="M-66.707,29.167h-31.237v5.672h31.237V29.167L-66.707,29.167z"/>
	</g>
	<g>
		<g>
			<g>
				<path fill="#00D8FF" d="M292.284-82.724l-6.853,13.033l4.978-0.196c0.495,2.443,1.261,5.031,2.019,7.557
					c1.159,3.864,2.358,7.859,2.358,10.78c0,2.499-0.896,4.854-1.931,7.578c-1.403,3.693-2.992,13.904-2.992,19.776h4.923
					c0-4.969,1.358-14.57,2.672-18.029c1.157-3.046,2.249-5.924,2.249-9.325c0-3.643-1.305-7.99-2.564-12.194
					c-0.641-2.138-1.289-4.323-1.746-6.342l4.75-0.188L292.284-82.724z"/>
			</g>
		</g>
		<path fill="#00D8FF" d="M289.535-43.442c-6.363,0-15.079,0-15.079-7.726c0-10.212,10.712-10.212,14.745-10.212
			c1.222,0,2.457,0.034,3.667,0.067c1.116,0.031,2.212,0.061,3.251,0.061c8.626,0,21.663,0,21.663,8.887
			c0,8.889-10.039,8.889-21.663,8.889c-1.212,0-2.387,0.009-3.518,0.019C291.54-43.45,290.516-43.442,289.535-43.442z
			 M289.201-56.38c-8.192,0-9.745,1.832-9.745,5.212c0,1.808,1.56,2.726,10.079,2.726c0.968,0,1.979-0.008,3.025-0.017
			c1.145-0.009,2.332-0.019,3.559-0.019c11.585,0,16.663-0.368,16.663-3.889c0-3.887-10.841-3.887-16.663-3.887
			c-1.083,0-2.225-0.031-3.389-0.063C291.566-56.347,290.377-56.38,289.201-56.38z"/>
		<path fill="#00D8FF" d="M272.788-61.022c-6.903,1.126-7.252-9.101-8.419-16.255c-1.168-7.156-2.803-17.171,1.928-17.943
			c4.732-0.771,5.896,6.383,7.532,16.4C275.464-68.803,277.221-61.746,272.788-61.022z"/>
		<path fill="#00D8FF" d="M267.482-97.856c-6.364-0.383-4.866-5.529-4.641-9.255c0.227-3.729,0.54-8.946,4.9-8.683
			c4.359,0.263,4.135,3.99,3.82,9.208C271.25-101.367,271.568-97.608,267.482-97.856z"/>
	</g>
	<g>
		<path fill="#00D8FF" d="M17.135-66.73h0.06l6.219-16.188h4.583v21.067H25.05v-17.616h-0.06L17.998-61.85h-1.875L9.16-79.466H9.1
			v17.616H6.244v-21.067h4.583L17.135-66.73z"/>
		<path fill="#00D8FF" d="M54.359-72.414c0,1.627-0.282,3.12-0.848,4.479c-0.564,1.359-1.344,2.529-2.336,3.511
			c-0.992,0.982-2.172,1.746-3.541,2.291c-1.369,0.545-2.856,0.818-4.463,0.818s-3.09-0.273-4.449-0.818
			c-1.359-0.545-2.534-1.309-3.526-2.291c-0.992-0.982-1.766-2.152-2.321-3.511s-0.833-2.852-0.833-4.479
			c0-1.646,0.278-3.149,0.833-4.508c0.555-1.358,1.329-2.519,2.321-3.481c0.992-0.962,2.167-1.711,3.526-2.247
			c1.359-0.536,2.842-0.803,4.449-0.803s3.095,0.268,4.463,0.803c1.368,0.535,2.549,1.285,3.541,2.247
			c0.992,0.962,1.771,2.123,2.336,3.481C54.078-75.562,54.359-74.06,54.359-72.414z M51.176-72.414c0-1.15-0.188-2.236-0.564-3.258
			c-0.377-1.021-0.913-1.919-1.607-2.693c-0.694-0.774-1.532-1.384-2.514-1.83c-0.982-0.446-2.088-0.669-3.318-0.669
			c-1.21,0-2.306,0.223-3.288,0.669c-0.982,0.446-1.815,1.056-2.5,1.83c-0.685,0.773-1.215,1.671-1.592,2.693
			s-0.565,2.108-0.565,3.258c0,1.171,0.188,2.271,0.565,3.303c0.376,1.032,0.912,1.93,1.606,2.693s1.527,1.364,2.5,1.8
			c0.972,0.437,2.063,0.655,3.273,0.655s2.311-0.218,3.303-0.655c0.992-0.436,1.835-1.036,2.529-1.8s1.23-1.662,1.606-2.693
			C50.988-70.142,51.176-71.243,51.176-72.414z"/>
		<path fill="#00D8FF" d="M58.377-82.917h7.23c1.35,0,2.697,0.198,4.047,0.595c1.35,0.397,2.568,1.022,3.66,1.875
			c1.092,0.854,1.975,1.944,2.648,3.273c0.674,1.33,1.012,2.927,1.012,4.791c0,1.805-0.336,3.368-1.012,4.687
			c-0.675,1.319-1.559,2.41-2.648,3.273c-1.09,0.863-2.311,1.508-3.66,1.934c-1.35,0.427-2.697,0.64-4.047,0.64h-7.23V-82.917z
			 M61.323-64.439h3.69c1.269,0,2.443-0.179,3.525-0.536c1.081-0.357,2.013-0.873,2.797-1.547c0.783-0.674,1.393-1.507,1.83-2.5
			c0.436-0.992,0.654-2.113,0.654-3.362c0-1.31-0.219-2.459-0.654-3.452c-0.438-0.992-1.047-1.82-1.83-2.485
			c-0.784-0.665-1.716-1.17-2.797-1.518c-1.082-0.347-2.257-0.521-3.525-0.521h-3.69V-64.439z"/>
		<path fill="#00D8FF" d="M83.967-64.469h11.01v2.619H81.021v-21.067h13.508v2.589H83.967v6.308h9.938v2.529h-9.938V-64.469
			L83.967-64.469z"/>
	</g>
	<g>
		<path d="M272.648,95.408c-0.899,0-1.811-0.223-2.65-0.689c-2.641-1.467-3.592-4.797-2.126-7.438l13.673-24.611
			c1.178-2.118,3.607-3.207,5.969-2.684l15.193,1.178l8.286-29.427c0.426-2.991,3.197-5.067,6.188-4.641
			c2.991,0.427,5.069,3.198,4.643,6.188l-5.47,38.284c-0.216,1.509-1.051,2.858-2.303,3.726c-1.251,0.867-2.801,1.179-4.298,0.84
			l-20.625-4.583l-11.69,21.042C276.436,94.395,274.57,95.408,272.648,95.408z"/>
		<circle cx="316.407" cy="13.369" r="8.204"/>
		<polygon points="294.529,27.635 267.137,11.817 267.137,18.838 252.623,18.838 252.623,35.246 267.137,35.246 267.137,43.449 		
			"/>
	</g>
	<g>
		<path d="M57.018,46.225c0-3.601-2.914-6.522-6.515-6.522c-3.597,0-6.514,2.921-6.514,6.522c0,2.691,1.637,5.004,3.972,5.994V113.9
			c0,1.338,1.082,2.424,2.419,2.424c1.337,0,2.419-1.086,2.419-2.424V52.297C55.262,51.365,57.018,49.007,57.018,46.225z"/>
		<path d="M84.471,15.718c-1.499-1.502-3.937-1.502-5.439,0c-1.501,1.503-1.501,3.939,0,5.44c13.783,13.788,13.783,36.22,0,50.013
			c-1.501,1.504-1.501,3.939,0,5.442c0.753,0.749,1.738,1.124,2.721,1.124c0.983,0,1.969-0.375,2.722-1.125
			C101.254,59.82,101.254,32.505,84.471,15.718z"/>
		<path d="M74.264,23.068c-1.502-1.504-3.939-1.504-5.438,0c-1.502,1.5-1.501,3.939,0,5.44c9.734,9.734,9.734,25.574,0,35.315
			c-1.502,1.502-1.501,3.937,0,5.438c0.753,0.753,1.737,1.131,2.72,1.131c0.984,0,1.973-0.378,2.719-1.131
			C87.004,56.525,87.004,35.799,74.264,23.068z"/>
		<path d="M63.489,30.416c-1.503-1.503-3.937-1.5-5.442-0.001c-1.502,1.501-1.504,3.939,0,5.441
			c2.752,2.757,4.271,6.417,4.271,10.308c0,3.893-1.519,7.551-4.271,10.301c-1.502,1.502-1.504,3.939,0,5.441
			c0.75,0.752,1.737,1.13,2.719,1.13c0.984,0,1.971-0.378,2.721-1.128c4.211-4.205,6.525-9.797,6.525-15.744
			C70.012,40.216,67.697,34.626,63.489,30.416z"/>
		<path d="M21.968,21.159c1.501-1.501,1.501-3.937,0-5.439c-1.502-1.502-3.939-1.502-5.439,0
			C-0.252,32.504-0.255,59.82,16.527,76.614c0.751,0.752,1.735,1.127,2.721,1.127c0.983,0,1.967-0.375,2.72-1.125
			c1.501-1.502,1.501-3.938,0.003-5.443C8.188,57.379,8.188,34.945,21.968,21.159z"/>
		<path d="M32.181,28.508c1.505-1.5,1.504-3.939,0-5.44c-1.501-1.504-3.94-1.504-5.438,0c-12.733,12.738-12.733,33.462,0,46.193
			c0.751,0.753,1.737,1.131,2.719,1.131c0.985,0,1.97-0.378,2.72-1.131c1.505-1.502,1.504-3.937,0-5.438
			C22.447,54.086,22.447,38.248,32.181,28.508z"/>
		<path d="M42.958,35.856c1.501-1.502,1.501-3.94-0.002-5.441c-1.501-1.499-3.938-1.499-5.441,0.004
			c-8.676,8.685-8.676,22.813,0.003,31.487c0.75,0.752,1.738,1.13,2.72,1.13c0.985,0,1.97-0.378,2.72-1.13
			c1.502-1.502,1.502-3.938,0-5.438C37.278,50.786,37.278,41.543,42.958,35.856z"/>
	</g>
	<path fill="none" stroke="#000000" stroke-width="5" stroke-miterlimit="10" d="M-65-249.111c4.876-3.941,8-9.964,8-16.722
		s-3.124-12.781-8-16.722"/>
	<path fill="none" stroke="#000000" stroke-width="5" stroke-miterlimit="10" d="M-56.953-240.945
		c7.256-5.867,11.907-14.83,11.907-24.889s-4.65-19.022-11.907-24.889"/>
	<path fill="none" stroke="#000000" stroke-width="5" stroke-miterlimit="10" d="M-48.907-232.778
		c9.638-7.791,15.813-19.697,15.813-33.056s-6.175-25.264-15.813-33.056"/>
	<path d="M-104.805-163.015h10.021l18.117,16.77c0,0,0-15.589,0-30.255s0-28.583,0-28.583l-17.776,16.768h-10.362V-163.015z"/>
	<path d="M-66.572-160.723l1.601,1.98l1.813,1.678c5.503-4.583,8.658-11.278,8.658-18.436c0-6.863-2.897-13.302-7.986-17.861
		l-3.657,3.449c4.226,3.624,6.644,8.841,6.644,14.412C-59.5-169.742-62.078-164.355-66.572-160.723z"/>
	<path d="M-47.546-175.5c0,8.887-3.956,17.2-10.855,22.839l3.693,3.418c7.734-6.581,12.162-16.095,12.162-26.257
		c0-9.904-4.201-19.195-11.573-25.753l-3.657,3.449C-51.268-192.181-47.546-184.113-47.546-175.5z"/>
	<path d="M-35.593-175.5c0,11.894-5.23,23.023-14.358,30.661l3.693,3.418c9.965-8.577,15.665-20.91,15.665-34.079
		c0-12.946-5.504-25.089-15.159-33.646l-3.657,3.449C-40.618-198.075-35.593-187.155-35.593-175.5z"/>
	<path fill="#00D8FF" d="M-99.267-63.263h7.504l15.567,14.558c0,0,0-11.673,0-22.656c0-10.983,0-21.404,0-21.404l-15.312,14.557
		h-7.759V-63.263z"/>
	<path fill="#00D8FF" d="M-68.637-59.546l1.199,1.483l1.357,1.256c4.122-3.431,6.483-8.445,6.483-13.805
		c0-5.139-2.169-9.962-5.98-13.375l-2.738,2.583c3.164,2.713,4.975,6.62,4.975,10.792C-63.341-66.3-65.271-62.267-68.637-59.546z"/>
	<path fill="#00D8FF" d="M-54.39-70.612c0,6.654-2.962,12.879-8.128,17.103l2.765,2.56c5.792-4.928,9.107-12.053,9.107-19.662
		c0-7.417-3.146-14.374-8.667-19.285l-2.738,2.583C-57.177-83.104-54.39-77.062-54.39-70.612z"/>
	<path fill="#00D8FF" d="M-45.439-70.612c0,8.906-3.917,17.24-10.751,22.959l2.765,2.56c7.463-6.422,11.731-15.658,11.731-25.519
		c0-9.695-4.122-18.788-11.351-25.195l-2.739,2.583C-49.201-87.517-45.439-79.34-45.439-70.612z"/>
	<path d="M-40.589,33.661c-3.75-4.1-11.454-5.34-11.454-11.914h-6.905v39.995c-2.872-0.639-6.314-0.36-9.688,1.002
		c-6.902,2.788-10.888,9.028-8.906,13.938c1.983,4.909,9.185,6.632,16.086,3.844c5.346-2.157,8.928-6.387,9.356-10.467h0.058V39.126
		c6.628,0,8.714,5.193,9.503,9.926C-38.852,45.903-36.269,38.384-40.589,33.661z"/>
</g>
<g id="Layer_2_1_" display="none">
	<g display="inline">
		<circle fill="none" stroke="#FF3FF9" stroke-width="0.25" stroke-miterlimit="10" cx="-69.5" cy="49.25" r="31.25"/>
		<line fill="none" stroke="#FF3FF9" stroke-width="0.25" stroke-miterlimit="10" x1="-119.5" y1="-1" x2="-19.5" y2="99"/>
		<line fill="none" stroke="#FF3FF9" stroke-width="0.25" stroke-miterlimit="10" x1="-119.5" y1="99" x2="-19.5" y2="-1"/>
		<rect x="-101.25" y="17.5" fill="none" stroke="#FF3FF9" stroke-width="0.25" stroke-miterlimit="10" width="63" height="63"/>
	</g>
	<g display="inline">
		<circle fill="none" stroke="#FF3FF9" stroke-width="0.25" stroke-miterlimit="10" cx="49.75" cy="50.25" r="31.25"/>
		<line fill="none" stroke="#FF3FF9" stroke-width="0.25" stroke-miterlimit="10" x1="-0.25" y1="0" x2="99.75" y2="100"/>
		<line fill="none" stroke="#FF3FF9" stroke-width="0.25" stroke-miterlimit="10" x1="-0.25" y1="100" x2="99.75" y2="0"/>
		<rect x="18" y="18.5" fill="none" stroke="#FF3FF9" stroke-width="0.25" stroke-miterlimit="10" width="63" height="63"/>
	</g>
	<g display="inline">
		<circle fill="none" stroke="#FF3FF9" stroke-width="0.25" stroke-miterlimit="10" cx="169.5" cy="50.25" r="31.25"/>
		<line fill="none" stroke="#FF3FF9" stroke-width="0.25" stroke-miterlimit="10" x1="119.5" y1="0" x2="219.5" y2="100"/>
		<line fill="none" stroke="#FF3FF9" stroke-width="0.25" stroke-miterlimit="10" x1="119.5" y1="100" x2="219.5" y2="0"/>
		<rect x="137.75" y="18.5" fill="none" stroke="#FF3FF9" stroke-width="0.25" stroke-miterlimit="10" width="63" height="63"/>
	</g>
	<g display="inline">
		<circle fill="none" stroke="#FF3FF9" stroke-width="0.25" stroke-miterlimit="10" cx="291.25" cy="50.25" r="31.25"/>
		<line fill="none" stroke="#FF3FF9" stroke-width="0.25" stroke-miterlimit="10" x1="241.25" y1="0" x2="341.25" y2="100"/>
		<line fill="none" stroke="#FF3FF9" stroke-width="0.25" stroke-miterlimit="10" x1="241.25" y1="100" x2="341.25" y2="0"/>
		<rect x="259.5" y="18.5" fill="none" stroke="#FF3FF9" stroke-width="0.25" stroke-miterlimit="10" width="63" height="63"/>
	</g>
	<g display="inline">
		<circle fill="none" stroke="#FF3FF9" stroke-width="0.25" stroke-miterlimit="10" cx="-69.5" cy="-70.25" r="31.25"/>
		<line fill="none" stroke="#FF3FF9" stroke-width="0.25" stroke-miterlimit="10" x1="-119.5" y1="-120.5" x2="-19.5" y2="-20.5"/>
		<line fill="none" stroke="#FF3FF9" stroke-width="0.25" stroke-miterlimit="10" x1="-119.5" y1="-20.5" x2="-19.5" y2="-120.5"/>
		<rect x="-101.25" y="-102" fill="none" stroke="#FF3FF9" stroke-width="0.25" stroke-miterlimit="10" width="63" height="63"/>
	</g>
	<g display="inline">
		<circle fill="none" stroke="#FF3FF9" stroke-width="0.25" stroke-miterlimit="10" cx="50" cy="-70.5" r="31.25"/>
		<line fill="none" stroke="#FF3FF9" stroke-width="0.25" stroke-miterlimit="10" x1="0" y1="-120.75" x2="100" y2="-20.75"/>
		<line fill="none" stroke="#FF3FF9" stroke-width="0.25" stroke-miterlimit="10" x1="0" y1="-20.75" x2="100" y2="-120.75"/>
		<rect x="18.25" y="-102.25" fill="none" stroke="#FF3FF9" stroke-width="0.25" stroke-miterlimit="10" width="63" height="63"/>
	</g>
	<g display="inline">
		<circle fill="none" stroke="#FF3FF9" stroke-width="0.25" stroke-miterlimit="10" cx="171.25" cy="-70.5" r="31.25"/>
		
			<line fill="none" stroke="#FF3FF9" stroke-width="0.25" stroke-miterlimit="10" x1="121.25" y1="-120.75" x2="221.25" y2="-20.75"/>
		
			<line fill="none" stroke="#FF3FF9" stroke-width="0.25" stroke-miterlimit="10" x1="121.25" y1="-20.75" x2="221.25" y2="-120.75"/>
		<rect x="139.5" y="-102.25" fill="none" stroke="#FF3FF9" stroke-width="0.25" stroke-miterlimit="10" width="63" height="63"/>
	</g>
	<g display="inline">
		<circle fill="none" stroke="#FF3FF9" stroke-width="0.25" stroke-miterlimit="10" cx="290.25" cy="-70.5" r="31.25"/>
		
			<line fill="none" stroke="#FF3FF9" stroke-width="0.25" stroke-miterlimit="10" x1="240.25" y1="-120.75" x2="340.25" y2="-20.75"/>
		
			<line fill="none" stroke="#FF3FF9" stroke-width="0.25" stroke-miterlimit="10" x1="240.25" y1="-20.75" x2="340.25" y2="-120.75"/>
		<rect x="258.5" y="-102.25" fill="none" stroke="#FF3FF9" stroke-width="0.25" stroke-miterlimit="10" width="63" height="63"/>
	</g>
</g>
</svg>
