<?xml version="1.0" encoding="utf-8"?>
<!-- Generator: Adobe Illustrator 15.0.0, SVG Export Plug-In . SVG Version: 6.00 Build 0)  -->
<!DOCTYPE svg PUBLIC "-//W3C//DTD SVG 1.1//EN" "http://www.w3.org/Graphics/SVG/1.1/DTD/svg11.dtd">
<svg version="1.1" xmlns="http://www.w3.org/2000/svg" xmlns:xlink="http://www.w3.org/1999/xlink" x="0px" y="0px" width="100px"
	 height="100px" viewBox="0 0 100 100" enable-background="new 0 0 100 100" xml:space="preserve">
<g id="Layer_2" display="none">
	<rect x="-383" y="-45" display="inline" opacity="0.2" fill="#1D1D1B" width="612" height="513"/>
</g>
<g id="Layer_1">
	<g>
		<path fill="#00D8FF" d="M-56.834,61.396V14.205c0-6.33-5.149-11.479-11.48-11.479c-6.33,0-11.479,5.149-11.479,11.479v47.191
			c-4.785,3.575-7.653,9.195-7.653,15.309c0,10.55,8.581,19.132,19.132,19.132s19.133-8.582,19.133-19.132
			C-49.182,70.59-52.049,64.971-56.834,61.396z M-68.314,90.734c-7.75,0-14.03-6.282-14.03-14.029
			c0-5.452,3.112-10.175,7.653-12.496V14.205c0-3.521,2.855-6.377,6.377-6.377c3.523,0,6.378,2.856,6.378,6.377v50.004
			c4.542,2.321,7.653,7.042,7.653,12.496C-54.284,84.452-60.565,90.734-68.314,90.734z"/>
		<path fill="#00D8FF" d="M-64.691,66.901V36.407h-7.248v30.494c-3.988,1.476-6.837,5.3-6.837,9.804
			c0,5.779,4.683,10.461,10.459,10.461s10.462-4.684,10.462-10.461C-57.854,72.202-60.701,68.377-64.691,66.901z"/>
	</g>
	<g>
		<path d="M-74.914,190.292c0.478-1.334,0.965-2.752,1.439-4.183c-2.4-0.726-4.66-2.037-6.557-3.932
			c-4.585-4.586-5.751-11.296-3.498-16.961c-3.043-2.975-4.814-5.906-4.814-5.906c-5.767-9.536-12.448-18.708-20.642-9.233
			c-12.13,14.024-5.85,40.771,1.706,48.33c7.558,7.559,19.713,8.435,27.274,0.876C-77.428,196.708-75.732,193.585-74.914,190.292z"
			/>
		<path d="M-49.311,167.095c-1.338,0.243-2.741,0.518-4.157,0.806c1.012,5-0.415,10.397-4.294,14.277
			c-2.489,2.489-5.607,3.97-8.839,4.446c-1.05,4.362-2.829,7.594-2.829,7.594c-5.376,9.762-9.974,20.134,2.323,22.493
			c18.214,3.493,38.238-15.322,41.004-25.646c2.767-10.321-2.554-21.289-12.876-24.055
			C-42.495,166.062-46.05,166.158-49.311,167.095z"/>
		<path d="M-73.023,124.438c-10.324,2.766-17.161,12.857-14.396,23.178c0.942,3.518,2.799,6.546,5.242,8.905
			c0.814,0.967,1.687,1.969,2.579,2.975c6.176-5.731,15.828-5.599,21.836,0.409c0.546,0.548,1.04,1.124,1.492,1.727
			c4.15-1.177,7.64-1.246,7.64-1.246c11.138-0.226,22.424-1.429,18.316-13.261C-36.393,129.607-62.701,121.67-73.023,124.438z"/>
		<circle cx="-68.896" cy="171.042" r="9.701"/>
	</g>
	<g>
		<path fill="#00D8FF" d="M-300.36,33.585l-5.253,5.252c2.706,2.678,4.381,6.391,4.381,10.499c0,4.103-1.675,7.818-4.381,10.496
			l5.253,5.252c4.027-4.034,6.518-9.601,6.518-15.748C-293.843,43.186-296.333,37.62-300.36,33.585z"/>
		<path fill="#00D8FF" d="M-279.066,49.337c0-10.229-4.158-19.484-10.871-26.173l-5.2,5.198c5.363,5.37,8.681,12.784,8.681,20.975
			c0,8.188-3.318,15.601-8.681,20.972l5.2,5.198C-283.224,68.819-279.066,59.562-279.066,49.337z"/>
		<path fill="#00D8FF" d="M-264.291,49.337c0-14.309-5.811-27.259-15.198-36.623l-5.226,5.224
			c8.052,8.028,13.034,19.13,13.034,31.399c0,12.265-4.982,23.369-13.034,31.394l5.226,5.224
			C-270.102,76.593-264.291,63.642-264.291,49.337z"/>
		<polygon fill="#00D8FF" points="-356.268,64.109 -336.797,64.109 -315.638,83.694 -315.638,14.978 -336.399,34.561 
			-356.268,34.561 		"/>
	</g>
	<path fill="#00D8FF" d="M-142.822,84.449c-11.375,0-12.677-16.422-14.057-33.808c-0.368-4.66-0.751-9.478-1.32-13.639
		c-1.447-10.603-3.476-11.604-3.562-11.643c-3.139,0.001-4.608,19.199-5.09,25.507c-1.324,17.271-2.571,33.583-13.923,33.583
		c-11.373,0-12.675-16.42-14.055-33.802c-0.619-7.787-1.903-23.988-4.886-25.286c-3.159,0-4.655,19.273-5.146,25.605
		c-1.337,17.219-2.599,33.482-13.87,33.482c-11.363,0-12.653-16.39-14.018-33.744c-0.369-4.681-0.75-9.522-1.322-13.703
		c-1.458-10.674-3.561-11.629-3.581-11.639l-0.056-9.065c9.954,0,11.82,13.649,12.617,19.477c0.606,4.438,0.997,9.411,1.376,14.219
		c0.62,7.872,1.907,24.249,4.921,25.387c3.049-1.32,4.297-17.391,4.896-25.115c1.356-17.469,2.636-33.967,14.144-33.967
		c11.29,0,12.586,16.335,13.958,33.631c0.627,7.901,1.932,24.341,4.958,25.452c3.11-1.169,4.354-17.405,4.951-25.207
		c1.333-17.42,2.593-33.875,14.089-33.875c9.92,0,11.784,13.649,12.579,19.479c0.604,4.415,0.996,9.362,1.375,14.146
		c0.627,7.908,1.932,24.361,4.957,25.458L-142.822,84.449z"/>
	<g>
		<path d="M-289.953,124.44h-0.724h-7.314h-2.038v63.349c-3.693-1.499-8.099-2.017-12.679-1.106
			c-10.394,2.084-17.484,10.435-15.836,18.661c1.644,8.23,11.399,13.216,21.798,11.132c8.789-1.757,15.158-8.021,15.925-14.893
			h0.142v-51.288c13.673,2.169,15.692,12.967,14.028,17.482c-0.631,1.721,0.483,3.014,2.601,0
			C-258.932,146.227-291.71,138.662-289.953,124.44z"/>
		<g>
			<path d="M-313.073,167.917h-37.715v7.847h37.715V167.917L-313.073,167.917z"/>
		</g>
		<g>
			<path d="M-313.073,153.375h-37.715v7.845h37.715V153.375L-313.073,153.375z"/>
		</g>
		<g>
			<path d="M-313.073,138.831h-37.715v7.847h37.715V138.831L-313.073,138.831z"/>
		</g>
	</g>
	<g>
		<g>
			<g>
				<path fill="#00D8FF" d="M52.284,37.276l-6.853,13.033l4.978-0.196c0.496,2.443,1.261,5.031,2.019,7.557
					c1.159,3.864,2.358,7.859,2.358,10.78c0,2.499-0.895,4.854-1.93,7.578c-1.404,3.693-2.993,13.904-2.993,19.776h4.923
					c0-4.969,1.358-14.57,2.672-18.029c1.157-3.046,2.249-5.924,2.249-9.325c0-3.643-1.305-7.99-2.564-12.194
					c-0.641-2.138-1.29-4.323-1.746-6.342l4.749-0.188L52.284,37.276z"/>
			</g>
		</g>
		<path fill="#00D8FF" d="M49.535,76.558c-6.363,0-15.079,0-15.079-7.726c0-10.212,10.712-10.212,14.745-10.212
			c1.222,0,2.457,0.034,3.667,0.067c1.117,0.031,2.212,0.061,3.251,0.061c8.626,0,21.663,0,21.663,8.887
			c0,8.889-10.039,8.889-21.663,8.889c-1.212,0-2.387,0.009-3.518,0.019C51.54,76.55,50.516,76.558,49.535,76.558z M49.201,63.62
			c-8.192,0-9.745,1.832-9.745,5.212c0,1.808,1.559,2.726,10.079,2.726c0.968,0,1.978-0.008,3.026-0.017
			c1.144-0.009,2.332-0.019,3.558-0.019c11.585,0,16.663-0.368,16.663-3.889c0-3.887-10.84-3.887-16.663-3.887
			c-1.083,0-2.224-0.031-3.388-0.063C51.566,63.653,50.377,63.62,49.201,63.62z"/>
		<path fill="#00D8FF" d="M32.788,58.978c-6.903,1.126-7.252-9.101-8.419-16.255c-1.168-7.156-2.802-17.171,1.928-17.943
			c4.732-0.771,5.897,6.383,7.532,16.4S37.221,58.254,32.788,58.978z"/>
		<path fill="#00D8FF" d="M27.482,22.144c-6.364-0.383-4.866-5.529-4.64-9.255c0.226-3.729,0.54-8.946,4.9-8.683
			c4.359,0.263,4.135,3.99,3.82,9.208C31.25,18.633,31.568,22.392,27.482,22.144z"/>
	</g>
	<g>
		<path d="M-222.865,176.693h0.06l6.219-16.188h4.583v21.067h-2.946v-17.616h-0.06l-6.993,17.616h-1.875l-6.963-17.616h-0.06v17.616
			h-2.856v-21.067h4.583L-222.865,176.693z"/>
		<path d="M-185.64,171.01c0,1.627-0.283,3.12-0.848,4.479s-1.344,2.529-2.336,3.511c-0.992,0.982-2.172,1.746-3.541,2.291
			s-2.856,0.818-4.463,0.818s-3.09-0.273-4.449-0.818s-2.534-1.309-3.526-2.291c-0.992-0.982-1.766-2.152-2.321-3.511
			s-0.833-2.852-0.833-4.479c0-1.646,0.278-3.149,0.833-4.508c0.555-1.358,1.329-2.519,2.321-3.481
			c0.992-0.962,2.167-1.711,3.526-2.247s2.842-0.803,4.449-0.803s3.095,0.268,4.463,0.803s2.549,1.285,3.541,2.247
			c0.992,0.962,1.771,2.123,2.336,3.481C-185.922,167.861-185.64,169.363-185.64,171.01z M-188.824,171.01
			c0-1.15-0.188-2.236-0.565-3.258c-0.377-1.021-0.913-1.919-1.607-2.693c-0.694-0.774-1.532-1.384-2.514-1.83
			s-2.088-0.669-3.318-0.669c-1.21,0-2.306,0.223-3.288,0.669s-1.815,1.056-2.5,1.83c-0.685,0.773-1.215,1.671-1.592,2.693
			c-0.377,1.022-0.565,2.108-0.565,3.258c0,1.171,0.188,2.271,0.565,3.303c0.376,1.032,0.912,1.93,1.606,2.693s1.527,1.364,2.5,1.8
			c0.972,0.437,2.063,0.655,3.273,0.655c1.21,0,2.311-0.218,3.303-0.655c0.992-0.436,1.835-1.036,2.529-1.8s1.23-1.662,1.607-2.693
			C-189.012,173.281-188.824,172.181-188.824,171.01z"/>
		<path d="M-181.623,160.506h7.231c1.349,0,2.697,0.198,4.047,0.595c1.349,0.397,2.568,1.022,3.66,1.875
			c1.091,0.853,1.974,1.944,2.648,3.273c0.674,1.33,1.012,2.927,1.012,4.791c0,1.805-0.337,3.368-1.012,4.687
			c-0.675,1.319-1.558,2.41-2.648,3.273c-1.091,0.863-2.311,1.508-3.66,1.934c-1.35,0.427-2.698,0.64-4.047,0.64h-7.231V160.506z
			 M-178.677,178.984h3.69c1.269,0,2.444-0.179,3.526-0.536c1.081-0.357,2.013-0.873,2.797-1.547c0.783-0.674,1.393-1.507,1.83-2.5
			c0.436-0.992,0.654-2.113,0.654-3.362c0-1.31-0.218-2.459-0.654-3.452c-0.437-0.992-1.047-1.82-1.83-2.485
			c-0.784-0.665-1.716-1.17-2.797-1.518c-1.082-0.347-2.257-0.521-3.526-0.521h-3.69V178.984z"/>
		<path d="M-156.033,178.955h11.01v2.619h-13.956v-21.067h13.509v2.589h-10.563v6.308h9.938v2.529h-9.938V178.955z"/>
	</g>
	<g>
		<path d="M32.648,215.408c-0.899,0-1.81-0.222-2.65-0.689c-2.641-1.467-3.592-4.797-2.126-7.438l13.673-24.611
			c1.178-2.118,3.607-3.207,5.969-2.683l15.193,1.177l8.286-29.427c0.426-2.991,3.197-5.067,6.188-4.641
			c2.991,0.427,5.069,3.198,4.642,6.188l-5.469,38.284c-0.216,1.509-1.051,2.859-2.303,3.726c-1.251,0.867-2.801,1.179-4.298,0.84
			l-20.625-4.583l-11.69,21.042C36.435,214.394,34.571,215.408,32.648,215.408z"/>
		<circle cx="76.407" cy="133.369" r="8.204"/>
		<polygon points="54.53,147.635 27.137,131.817 27.137,138.838 12.623,138.838 12.623,155.246 27.137,155.246 27.137,163.449 		"/>
	</g>
</g>
</svg>
